# xmcd
#
# Track frame offsets:
#	150
#	20196
#	34572
#	43799
#	45005
#	57078
#	74676
#	87428
#	103569
#	118778
#	137120
#	156000
#	173001
#	186232
#	199602
#	216869
#
# Disc length: 3077 seconds
#
# Revision: 1
# Processed by: cddbd v1.5.1PL0 Copyright (c) Steve Scherf et al.
# Submitted via: EasyCDDAExtractor 6.2.0.3
#
DISCID=de0c0310
DTITLE=C.A. Waller - Might As Well Rain
DYEAR=2000
DGENRE=Blues
TTITLE0=In the Beginning
TTITLE1=Outside Woman Blues
TTITLE2=What You Done to Me
TTITLE3=Tom's Limitations
TTITLE4=How Long, How Long
TTITLE5=Shake That Thing/Got the Blues, Can't Be Satisfied
TTITLE6=Might as Well Rain
TTITLE7=Police Dog Blues
TTITLE8=Ain't That Just Like a Woman?
TTITLE9=I Couldn't Help Myself
TTITLE10=Belly Rub
TTITLE11=Mr. Waller's 13 Bar Blues
TTITLE12=One Bad Habit
TTITLE13=Big Road Blues
TTITLE14=Cocaine Blues
TTITLE15=Country Blues
EXTD=
EXTT0=
EXTT1=
EXTT2=
EXTT3=
EXTT4=
EXTT5=
EXTT6=
EXTT7=
EXTT8=
EXTT9=
EXTT10=
EXTT11=
EXTT12=
EXTT13=
EXTT14=
EXTT15=
PLAYORDER=
